<svg width="272" height="272" xmlns="http://www.w3.org/2000/svg" xml:space="preserve" version="1.1">

 <g>
  <title>Layer 1</title>
  <g id="svg_1">
   <g id="svg_2">
    <polygon id="svg_3" fill="#F04A24" points="5.5,5.5 5.5,131.5 55,131.5 55,55 131.5,55 131.5,5.5 " class="st0"/>
    <path id="svg_4" fill="#DDDDDD" d="m82,217l-76.5,0l0,49.5l126,0l0,-63l-49.5,0l0,13.5zm-76.5,-13.5l49.5,0l0,-13.5l76.5,0l0,-49.5l-126,0l0,63zm261,-148.5l0,-49.5l-126,0l0,49.5l38.2,0l0,27l-38.2,0l0,49.5l126,0l0,-49.5l-38.2,0l0,-27l38.2,0zm-126,211.5l126,0l0,-49.5l-76.5,0l0,-27l76.5,0l0,-49.5l-126,0l0,126z" class="st1"/>
   </g>
   <rect id="svg_5" fill="none" height="270" width="270" class="st2" y="1" x="1"/>
  </g>
 </g>
</svg>